<mxfile host="app.diagrams.net" agent="Mozilla/5.0 (Macintosh; Intel Mac OS X 10_15_7) AppleWebKit/537.36 (KHTML, like Gecko) Chrome/141.0.0.0 Safari/537.36" version="28.2.5">
  <diagram name="Page-1" id="xKIqYFFfQeDwPt6MfcrX">
    <mxGraphModel dx="673" dy="434" grid="1" gridSize="10" guides="1" tooltips="1" connect="1" arrows="1" fold="1" page="1" pageScale="1" pageWidth="827" pageHeight="1169" math="0" shadow="0">
      <root>
        <mxCell id="0" />
        <mxCell id="1" parent="0" />
        <mxCell id="sSoiurmsjO-PgQipFjPg-1" value="" style="rounded=1;whiteSpace=wrap;html=1;fillColor=#dae8fc;strokeColor=#6c8ebf;" vertex="1" parent="1">
          <mxGeometry x="160" y="180" width="60" height="60" as="geometry" />
        </mxCell>
        <mxCell id="sSoiurmsjO-PgQipFjPg-2" value="" style="shape=mxgraph.networks2.icon;aspect=fixed;fillColor=#EDEDED;strokeColor=#000000;gradientColor=#5B6163;network2IconShadow=1;network2bgFillColor=none;labelPosition=center;verticalLabelPosition=bottom;align=center;verticalAlign=top;network2Icon=mxgraph.networks2.pc;network2IconYOffset=-0.0593;network2IconW=0.9999;network2IconH=0.7096;" vertex="1" parent="1">
          <mxGeometry x="165" y="192.26" width="49.995" height="35.480000000000004" as="geometry" />
        </mxCell>
        <mxCell id="sSoiurmsjO-PgQipFjPg-3" value="" style="rounded=1;whiteSpace=wrap;html=1;fillColor=#dae8fc;strokeColor=#6c8ebf;" vertex="1" parent="1">
          <mxGeometry x="160" y="270" width="60" height="60" as="geometry" />
        </mxCell>
        <mxCell id="sSoiurmsjO-PgQipFjPg-5" value="" style="html=1;verticalLabelPosition=bottom;align=center;labelBackgroundColor=#ffffff;verticalAlign=top;strokeWidth=2;strokeColor=#0080F0;shadow=0;dashed=0;shape=mxgraph.ios7.icons.smartphone;" vertex="1" parent="1">
          <mxGeometry x="182" y="285" width="18" height="30" as="geometry" />
        </mxCell>
        <mxCell id="sSoiurmsjO-PgQipFjPg-7" value="" style="rounded=1;whiteSpace=wrap;html=1;fillColor=#dae8fc;strokeColor=#6c8ebf;" vertex="1" parent="1">
          <mxGeometry x="240" y="120" width="60" height="60" as="geometry" />
        </mxCell>
        <mxCell id="sSoiurmsjO-PgQipFjPg-8" value="" style="sketch=0;html=1;aspect=fixed;strokeColor=none;shadow=0;fillColor=#3B8DF1;verticalAlign=top;labelPosition=center;verticalLabelPosition=bottom;shape=mxgraph.gcp2.files" vertex="1" parent="1">
          <mxGeometry x="250" y="130.6" width="40" height="38.8" as="geometry" />
        </mxCell>
        <mxCell id="sSoiurmsjO-PgQipFjPg-9" value="" style="rounded=1;whiteSpace=wrap;html=1;fillColor=#dae8fc;strokeColor=#6c8ebf;" vertex="1" parent="1">
          <mxGeometry x="240" y="330" width="60" height="60" as="geometry" />
        </mxCell>
        <mxCell id="sSoiurmsjO-PgQipFjPg-11" value="" style="image;html=1;image=img/lib/clip_art/computers/Database_128x128.png" vertex="1" parent="1">
          <mxGeometry x="240" y="340" width="60" height="40" as="geometry" />
        </mxCell>
        <mxCell id="sSoiurmsjO-PgQipFjPg-12" value="" style="rounded=1;whiteSpace=wrap;html=1;fillColor=#e1d5e7;strokeColor=#9673a6;" vertex="1" parent="1">
          <mxGeometry x="300" y="227.74" width="60" height="60" as="geometry" />
        </mxCell>
        <mxCell id="sSoiurmsjO-PgQipFjPg-14" value="" style="shape=mxgraph.signs.travel.bank;html=1;pointerEvents=1;fillColor=#000000;strokeColor=none;verticalLabelPosition=bottom;verticalAlign=top;align=center;" vertex="1" parent="1">
          <mxGeometry x="305" y="234.74" width="50" height="46" as="geometry" />
        </mxCell>
        <mxCell id="sSoiurmsjO-PgQipFjPg-15" value="" style="rounded=1;whiteSpace=wrap;html=1;fillColor=#e1d5e7;strokeColor=#9673a6;" vertex="1" parent="1">
          <mxGeometry x="414" y="227.74" width="60" height="60" as="geometry" />
        </mxCell>
        <mxCell id="sSoiurmsjO-PgQipFjPg-16" value="" style="shape=mxgraph.signs.travel.bank;html=1;pointerEvents=1;fillColor=#000000;strokeColor=none;verticalLabelPosition=bottom;verticalAlign=top;align=center;" vertex="1" parent="1">
          <mxGeometry x="419" y="234.74" width="50" height="46" as="geometry" />
        </mxCell>
        <mxCell id="sSoiurmsjO-PgQipFjPg-17" value="" style="rounded=1;whiteSpace=wrap;html=1;fillColor=#e1d5e7;strokeColor=#9673a6;" vertex="1" parent="1">
          <mxGeometry x="530" y="227.74" width="60" height="60" as="geometry" />
        </mxCell>
        <mxCell id="sSoiurmsjO-PgQipFjPg-18" value="" style="shape=mxgraph.signs.travel.bank;html=1;pointerEvents=1;fillColor=#000000;strokeColor=none;verticalLabelPosition=bottom;verticalAlign=top;align=center;" vertex="1" parent="1">
          <mxGeometry x="535" y="234.74" width="50" height="46" as="geometry" />
        </mxCell>
        <mxCell id="sSoiurmsjO-PgQipFjPg-27" value="" style="endArrow=none;html=1;rounded=0;exitX=0.5;exitY=1;exitDx=0;exitDy=0;entryX=0;entryY=0;entryDx=0;entryDy=0;strokeWidth=2;" edge="1" parent="1" source="sSoiurmsjO-PgQipFjPg-7" target="sSoiurmsjO-PgQipFjPg-12">
          <mxGeometry width="50" height="50" relative="1" as="geometry">
            <mxPoint x="420" y="280" as="sourcePoint" />
            <mxPoint x="470" y="230" as="targetPoint" />
          </mxGeometry>
        </mxCell>
        <mxCell id="sSoiurmsjO-PgQipFjPg-29" value="" style="endArrow=none;html=1;rounded=0;exitX=1;exitY=0.5;exitDx=0;exitDy=0;entryX=0;entryY=0.5;entryDx=0;entryDy=0;strokeWidth=2;" edge="1" parent="1" source="sSoiurmsjO-PgQipFjPg-12" target="sSoiurmsjO-PgQipFjPg-15">
          <mxGeometry width="50" height="50" relative="1" as="geometry">
            <mxPoint x="420" y="280" as="sourcePoint" />
            <mxPoint x="470" y="230" as="targetPoint" />
          </mxGeometry>
        </mxCell>
        <mxCell id="sSoiurmsjO-PgQipFjPg-30" value="" style="endArrow=none;html=1;rounded=0;exitX=1;exitY=0.5;exitDx=0;exitDy=0;entryX=0;entryY=0.5;entryDx=0;entryDy=0;strokeWidth=2;" edge="1" parent="1" source="sSoiurmsjO-PgQipFjPg-15" target="sSoiurmsjO-PgQipFjPg-17">
          <mxGeometry width="50" height="50" relative="1" as="geometry">
            <mxPoint x="380" y="290" as="sourcePoint" />
            <mxPoint x="434" y="290" as="targetPoint" />
          </mxGeometry>
        </mxCell>
        <mxCell id="sSoiurmsjO-PgQipFjPg-31" value="" style="endArrow=none;html=1;rounded=0;exitX=1;exitY=0.5;exitDx=0;exitDy=0;entryX=-0.044;entryY=0.362;entryDx=0;entryDy=0;entryPerimeter=0;strokeWidth=2;" edge="1" parent="1" source="sSoiurmsjO-PgQipFjPg-1" target="sSoiurmsjO-PgQipFjPg-12">
          <mxGeometry width="50" height="50" relative="1" as="geometry">
            <mxPoint x="360" y="350" as="sourcePoint" />
            <mxPoint x="414" y="350" as="targetPoint" />
          </mxGeometry>
        </mxCell>
        <mxCell id="sSoiurmsjO-PgQipFjPg-32" value="" style="endArrow=none;html=1;rounded=0;exitX=1;exitY=0.5;exitDx=0;exitDy=0;entryX=0;entryY=0.75;entryDx=0;entryDy=0;strokeWidth=2;" edge="1" parent="1" source="sSoiurmsjO-PgQipFjPg-3" target="sSoiurmsjO-PgQipFjPg-12">
          <mxGeometry width="50" height="50" relative="1" as="geometry">
            <mxPoint x="330" y="330" as="sourcePoint" />
            <mxPoint x="290" y="270" as="targetPoint" />
          </mxGeometry>
        </mxCell>
        <mxCell id="sSoiurmsjO-PgQipFjPg-33" value="" style="endArrow=none;html=1;rounded=0;exitX=0.5;exitY=0;exitDx=0;exitDy=0;entryX=0;entryY=1;entryDx=0;entryDy=0;strokeWidth=2;" edge="1" parent="1" source="sSoiurmsjO-PgQipFjPg-9" target="sSoiurmsjO-PgQipFjPg-12">
          <mxGeometry width="50" height="50" relative="1" as="geometry">
            <mxPoint x="330" y="310" as="sourcePoint" />
            <mxPoint x="384" y="310" as="targetPoint" />
          </mxGeometry>
        </mxCell>
        <mxCell id="sSoiurmsjO-PgQipFjPg-34" value="" style="rounded=1;whiteSpace=wrap;html=1;fillColor=#dae8fc;strokeColor=#6c8ebf;" vertex="1" parent="1">
          <mxGeometry x="660" y="227.74" width="60" height="60" as="geometry" />
        </mxCell>
        <mxCell id="sSoiurmsjO-PgQipFjPg-35" value="" style="shape=mxgraph.networks2.icon;aspect=fixed;fillColor=#EDEDED;strokeColor=#000000;gradientColor=#5B6163;network2IconShadow=1;network2bgFillColor=none;labelPosition=center;verticalLabelPosition=bottom;align=center;verticalAlign=top;network2Icon=mxgraph.networks2.pc;network2IconYOffset=-0.0593;network2IconW=0.9999;network2IconH=0.7096;" vertex="1" parent="1">
          <mxGeometry x="665" y="240" width="49.995" height="35.480000000000004" as="geometry" />
        </mxCell>
        <mxCell id="sSoiurmsjO-PgQipFjPg-36" value="" style="endArrow=none;html=1;rounded=0;exitX=1;exitY=0.5;exitDx=0;exitDy=0;entryX=0;entryY=0.5;entryDx=0;entryDy=0;strokeWidth=2;" edge="1" parent="1" source="sSoiurmsjO-PgQipFjPg-17" target="sSoiurmsjO-PgQipFjPg-34">
          <mxGeometry width="50" height="50" relative="1" as="geometry">
            <mxPoint x="630" y="322" as="sourcePoint" />
            <mxPoint x="660" y="280" as="targetPoint" />
          </mxGeometry>
        </mxCell>
        <mxCell id="sSoiurmsjO-PgQipFjPg-38" value="" style="rounded=1;whiteSpace=wrap;html=1;fillColor=#dae8fc;strokeColor=#6c8ebf;" vertex="1" parent="1">
          <mxGeometry x="640" y="140" width="60" height="60" as="geometry" />
        </mxCell>
        <mxCell id="sSoiurmsjO-PgQipFjPg-40" value="" style="verticalLabelPosition=bottom;sketch=0;html=1;fillColor=#282828;strokeColor=none;verticalAlign=top;pointerEvents=1;align=center;shape=mxgraph.cisco_safe.people_places_things_icons.icon9;" vertex="1" parent="1">
          <mxGeometry x="645" y="147.26" width="50" height="45" as="geometry" />
        </mxCell>
        <mxCell id="sSoiurmsjO-PgQipFjPg-41" value="" style="endArrow=none;html=1;rounded=0;exitX=1;exitY=0;exitDx=0;exitDy=0;entryX=0;entryY=0.5;entryDx=0;entryDy=0;strokeWidth=2;" edge="1" parent="1" source="sSoiurmsjO-PgQipFjPg-17" target="sSoiurmsjO-PgQipFjPg-38">
          <mxGeometry width="50" height="50" relative="1" as="geometry">
            <mxPoint x="510" y="432" as="sourcePoint" />
            <mxPoint x="540" y="390" as="targetPoint" />
          </mxGeometry>
        </mxCell>
        <mxCell id="sSoiurmsjO-PgQipFjPg-42" value="" style="rounded=1;whiteSpace=wrap;html=1;fillColor=#dae8fc;strokeColor=#6c8ebf;" vertex="1" parent="1">
          <mxGeometry x="635" y="320" width="60" height="60" as="geometry" />
        </mxCell>
        <mxCell id="sSoiurmsjO-PgQipFjPg-43" value="" style="verticalLabelPosition=bottom;sketch=0;html=1;fillColor=#282828;strokeColor=none;verticalAlign=top;pointerEvents=1;align=center;shape=mxgraph.cisco_safe.people_places_things_icons.icon9;" vertex="1" parent="1">
          <mxGeometry x="640" y="327.26" width="50" height="45" as="geometry" />
        </mxCell>
        <mxCell id="sSoiurmsjO-PgQipFjPg-44" value="" style="endArrow=none;html=1;rounded=0;exitX=0;exitY=0;exitDx=0;exitDy=0;entryX=1.019;entryY=0.879;entryDx=0;entryDy=0;strokeWidth=2;entryPerimeter=0;" edge="1" parent="1" source="sSoiurmsjO-PgQipFjPg-42" target="sSoiurmsjO-PgQipFjPg-17">
          <mxGeometry width="50" height="50" relative="1" as="geometry">
            <mxPoint x="560" y="408" as="sourcePoint" />
            <mxPoint x="610" y="350" as="targetPoint" />
          </mxGeometry>
        </mxCell>
      </root>
    </mxGraphModel>
  </diagram>
</mxfile>
